# xmcd
#
# Track frame offsets:
#        150
#        13058
#        31929
#        46600
#        60375
#        77919
#        91575
#        107676
#        127673
#        142256
#        155988
#        167546
#        185474
#        197272
#        209470
#        229958
#
# Disc length: 3278 seconds
#
# Revision: 0
# Processed by: cddbd v1.5.2PL0 Copyright (c) Steve Scherf et al.
# Submitted via: CDGFix 3.4e
#
DISCID=c90ccc10
DTITLE=Various Artist - CB70014
DYEAR=1900
DGENRE=Karaoke
TTITLE0=Reno and Smiley (A) - I m Using My Bible For A Roadmap
TTITLE1=Ralph Stanley (F) - Life s Railway To Heaven
TTITLE2=Bill Monroe (A) - Crying Holy Unto The Lord
TTITLE3=Stanley Brothers (G) - A Beautiful Life
TTITLE4=Carl Story (A) - Angel Band
TTITLE5=Monroe Brothers - What Would You Give In Exchange For Your Soul
TTITLE6=Flatt and Scruggs (E) - Where The Soul Never Dies
TTITLE7=Ralph Stanley - White Dove
TTITLE8=Jim and Jesse (A) - Little White Church
TTITLE9=Ralph Stanley (E) - Old Time Religion
TTITLE10=Bill Monroe - Walking In Jerusalem
TTITLE11=Ricky Skaggs (B) - Green Pastures
TTITLE12=Seldom Scene (F) - Heaven
TTITLE13=Merle Travis (A) - I Am A Pilgrim
TTITLE14=Sam McGhee (E) - Wayfaring Strangers
TTITLE15=Jimmy Martin (A) - Will The Circle Be Unbroken
EXTD=
EXTT0=
EXTT1=
EXTT2=
EXTT3=
EXTT4=
EXTT5=
EXTT6=
EXTT7=
EXTT8=
EXTT9=
EXTT10=
EXTT11=
EXTT12=
EXTT13=
EXTT14=
EXTT15=
PLAYORDER=
